<svg id="Layer_1" data-name="Layer 1" xmlns="http://www.w3.org/2000/svg" viewBox="0 0 345.6 111.65"><path d="M126.9,418.58c-1.54-1.2-1.15-4,3.15-21.31,5.32-21.32,7.2-29.74,10.68-48.45,3.45-19,4.18-25.17,3.85-29.8-.16-2.31-.05-2.75.36-3.22.95-.94,2.14-.59,2.53.84.19.71-.34,5.55-2.26,17.46-4.13,25.89-8,45.36-14.52,72.28-2.49,10.07-2.46,10.5-2.17,10.48a42.34,42.34,0,0,0,4-2.9c4.56-3.38,7.46-5.47,10.83-7.16,7.85-4.19,19.74-8.82,24.64-9.45,2-.43,2.75-.2,2.81.67,0,.58-.24.75-1,.65a36.76,36.76,0,0,0-4.13,1.31c-11.8,3.74-21.09,8.18-30.36,14.8-6.53,4.39-7.51,4.89-8.6,3.81Z" transform="translate(-126.08 -310.22)"/><path d="M167,378.89a.6.6,0,0,1,.5.53,2.15,2.15,0,0,1-.11,1c-.12.36-.27.75-.45,1.16a9.7,9.7,0,0,1-.53,1.07c-.25.44-.51.89-.79,1.33s-.58.95-.92,1.49a9.11,9.11,0,0,1-2.62,2.63,4.94,4.94,0,0,1-2.82.88,5.77,5.77,0,0,1-2.29-.8,7.41,7.41,0,0,1-2.5-2.77c-.3.5-.63,1.09-1,1.78a12,12,0,0,1-1.49,2.09,7.84,7.84,0,0,1-2.18,1.72,2.69,2.69,0,0,1-2.66,0,3.26,3.26,0,0,1-1.56-1.91,6.7,6.7,0,0,1-.41-2.85,13.51,13.51,0,0,1,1.32-4.88,8.83,8.83,0,0,1,3.12-3.67,4.22,4.22,0,0,1,2.64-.71,4,4,0,0,1,2.33.79,3,3,0,0,1,1,1.32.68.68,0,0,1-.44.91.7.7,0,0,1-.52.11.67.67,0,0,1-.3-.19,2.78,2.78,0,0,1-.24-.34,1,1,0,0,0-.34-.33,2,2,0,0,0-1.05-.35,2.91,2.91,0,0,0-1.43.39,4.64,4.64,0,0,0-2.07,2.31,20.93,20.93,0,0,0-1.23,3.24,8.15,8.15,0,0,0-.24,1.12q-.12.75-.18,1.5a11.2,11.2,0,0,0,0,1.42,1.14,1.14,0,0,0,.42.93c.39.26.87.09,1.42-.49a14.59,14.59,0,0,0,1.65-2.17c.56-.87,1.06-1.75,1.52-2.63s.77-1.48.94-1.77c.27-.83.7-1.14,1.28-.94a1.1,1.1,0,0,1,.72,1.08l.69,1.19a12.34,12.34,0,0,0,1,1.56,7.33,7.33,0,0,0,1.27,1.33,2.22,2.22,0,0,0,1.24.59,2.61,2.61,0,0,0,1.82-.87,12.33,12.33,0,0,0,1.7-2.11,22.48,22.48,0,0,0,1.42-2.52c.41-.85.74-1.55,1-2.09a3.31,3.31,0,0,1,.71-1A.78.78,0,0,1,167,378.89Z" transform="translate(-126.08 -310.22)"/><path d="M180.47,367.57a6.75,6.75,0,0,1,2.22-.65,3.56,3.56,0,0,1,1.43.11,1.09,1.09,0,0,1,.61.56,2.37,2.37,0,0,1,.2.77,1.12,1.12,0,0,1-.17.68.61.61,0,0,1-.47.32.74.74,0,0,1-.63-.28c-.18-.2-.54-.2-1.1,0a16,16,0,0,0-5.15,2.92,21.68,21.68,0,0,0-4.25,4.7,25,25,0,0,0-2.86,5.74,15.52,15.52,0,0,0-.92,5.95,1.5,1.5,0,0,1-.4.95,1.36,1.36,0,0,1-.93.43,1.41,1.41,0,0,1-1-.36,1.37,1.37,0,0,1-.49-1l-1.7-12.94a1.28,1.28,0,0,1,.36-1,1.41,1.41,0,0,1,1-.46,1.35,1.35,0,0,1,1,.35,1.17,1.17,0,0,1,.42,1l1,7.45a23.9,23.9,0,0,1,4-8.73,22.28,22.28,0,0,1,3.5-3.72A18.68,18.68,0,0,1,180.47,367.57Z" transform="translate(-126.08 -310.22)"/><path d="M203.38,376.32a.61.61,0,0,1,.5.53,2.24,2.24,0,0,1-.11,1q-.18.56-.45,1.17c-.19.42-.36.77-.53,1.07s-.52.89-.79,1.33l-.93,1.49a8.87,8.87,0,0,1-2.62,2.63,4.82,4.82,0,0,1-2.81.87,5.54,5.54,0,0,1-2.29-.79,7.33,7.33,0,0,1-2.5-2.77c-.3.49-.64,1.09-1,1.78a12.51,12.51,0,0,1-1.49,2.09,7.92,7.92,0,0,1-2.18,1.71,2.66,2.66,0,0,1-2.66.05,3.23,3.23,0,0,1-1.56-1.91,6.57,6.57,0,0,1-.41-2.85,13.51,13.51,0,0,1,1.32-4.88,8.69,8.69,0,0,1,3.11-3.67,4.34,4.34,0,0,1,2.65-.72,4,4,0,0,1,2.33.8,2.84,2.84,0,0,1,.94,1.31.68.68,0,0,1-.43.92.76.76,0,0,1-.52.11.62.62,0,0,1-.3-.19,2,2,0,0,1-.24-.34.83.83,0,0,0-.34-.33,1.89,1.89,0,0,0-1.06-.35,3,3,0,0,0-1.42.38A4.69,4.69,0,0,0,185.5,379a21.92,21.92,0,0,0-1.22,3.24,7.82,7.82,0,0,0-.24,1.12q-.12.75-.18,1.5a9.66,9.66,0,0,0,0,1.42,1.21,1.21,0,0,0,.42.93c.4.26.87.09,1.42-.49a14.22,14.22,0,0,0,1.66-2.18c.55-.86,1.06-1.74,1.52-2.62s.77-1.48.94-1.77c.27-.83.7-1.14,1.28-.95a1.12,1.12,0,0,1,.72,1.09c.16.27.39.67.68,1.19a13.64,13.64,0,0,0,1,1.56,7.65,7.65,0,0,0,1.26,1.33A2.25,2.25,0,0,0,196,385a2.61,2.61,0,0,0,1.82-.88,12.33,12.33,0,0,0,1.7-2.1A24.17,24.17,0,0,0,201,379.5c.41-.85.74-1.55,1-2.09a3.5,3.5,0,0,1,.71-1A.81.81,0,0,1,203.38,376.32Z" transform="translate(-126.08 -310.22)"/><path d="M306,314.23a8.17,8.17,0,0,1,2.88,4.62,11,11,0,0,1-.45,5.73,28.86,28.86,0,0,1-5,8.23A108.91,108.91,0,0,1,293.79,343c.35-.16.54-.1.56.17a.6.6,0,0,1-.17.55l-.26.15c-1.2.95-2.41,2-3.65,3.11a50.87,50.87,0,0,1-4.82,3.81l-1.9,1.42c-.88.65-1.81,1.29-2.78,1.93s-1.91,1.18-2.8,1.65a3.81,3.81,0,0,1-2,.62,1.25,1.25,0,0,1-.81-.45,2.64,2.64,0,0,1-.4-.76,1.76,1.76,0,0,1-.08-.74c0-.23.11-.34.24-.35a7.64,7.64,0,0,0,2.25-.94,37.3,37.3,0,0,0,3.27-2.17q1.84-1.35,4-3.17c1.48-1.21,3-2.51,4.65-3.89a140.77,140.77,0,0,0,11.45-11.23q4.5-5,5.74-8.65a8.4,8.4,0,0,0,.53-4.49,6.1,6.1,0,0,0-2.12-3.54,13,13,0,0,0-5.1-2.53,29.73,29.73,0,0,0-7.63-.92,64.76,64.76,0,0,0-11.9,1.18,132.24,132.24,0,0,0-14.44,3.53,107.24,107.24,0,0,0-13.16,4.87A79.64,79.64,0,0,0,241.76,328a59.91,59.91,0,0,0-8,6.38A17.79,17.79,0,0,0,229,341a11.11,11.11,0,0,0-.08,8.49,23.81,23.81,0,0,0,5.8,8.07,54.57,54.57,0,0,0,6.44,5.28c2.26,1.58,4.61,3.06,7,4.42s4.89,2.67,7.4,3.89,5,2.43,7.55,3.61,4.83,2.28,7.2,3.42,4.63,2.35,6.8,3.6a62.54,62.54,0,0,1,6.12,4,42.32,42.32,0,0,1,5.28,4.58,14.17,14.17,0,0,1,2.86,4,11.94,11.94,0,0,1,1.05,3.76,9.7,9.7,0,0,1-.27,3.35,17.48,17.48,0,0,1-1,2.82,20.48,20.48,0,0,1-5.08,5.92,39.07,39.07,0,0,1-8.32,5.14,62.58,62.58,0,0,1-9.71,3.77,67.66,67.66,0,0,1-10.63,2.28l-1.85.24c-.61.06-1.2.12-1.79.16a25.11,25.11,0,0,1-6.74-.27q-3.86-.88-4.85-3.39a6.21,6.21,0,0,1,.19-4,24,24,0,0,1,2.59-4.6,53.84,53.84,0,0,1,3.5-4.35q2.07-2.36,4.93-5.07,2.3-2.19,4.56-4.19t4.1-3.48l4.14-3.34a1.41,1.41,0,0,1,2,.06,1,1,0,0,1,.2.87,1.2,1.2,0,0,1-.69.79,48,48,0,0,0-5.6,3.9,95.08,95.08,0,0,0-8,7.11,61.89,61.89,0,0,0-8.06,8.92,13.11,13.11,0,0,0-1.86,3.9,4.59,4.59,0,0,0,0,2.82c.29.88,1.33,1.51,3.12,1.88q3.1.74,9.22-.11a70.49,70.49,0,0,0,10.77-2.29A64.81,64.81,0,0,0,277,413.2a43.34,43.34,0,0,0,7.71-4.65,16.09,16.09,0,0,0,4.63-5.18q3-5.78-2.3-11.38a36.71,36.71,0,0,0-5.17-4.38,60.51,60.51,0,0,0-6.21-3.84q-3.31-1.8-6.89-3.45c-2.39-1.1-4.77-2.22-7.16-3.36-2.57-1.18-5.15-2.37-7.72-3.59s-5.09-2.54-7.54-3.95-4.84-2.94-7.15-4.59a55.56,55.56,0,0,1-6.53-5.44q-4.86-4.41-6-9.28a12.88,12.88,0,0,1-.65-4.77,15.2,15.2,0,0,1,1.12-4.9,23,23,0,0,1,4.74-7.36,45.64,45.64,0,0,1,8.16-6.86,77.37,77.37,0,0,1,11.21-6.12,117.51,117.51,0,0,1,13.93-5.16,131.47,131.47,0,0,1,14.44-3.6,60.63,60.63,0,0,1,12-1.11Q301.33,310.29,306,314.23Z" transform="translate(-126.08 -310.22)"/><path d="M289.38,380.88a3.26,3.26,0,0,1-.85,0,4.29,4.29,0,0,1-3.35-2.17,6.1,6.1,0,0,1-1-3.06,16.69,16.69,0,0,1,.1-3.06,19.45,19.45,0,0,1,1.05-4.69,15.11,15.11,0,0,1,2.11-3.91,2.25,2.25,0,0,1,2.3-1.08,2.37,2.37,0,0,1,1.78,1.64,16.86,16.86,0,0,1,.78,2.43,13.2,13.2,0,0,1,.32,2.11c0,.57-.14.92-.56,1.07a1.11,1.11,0,0,1-1.07-.1,1.55,1.55,0,0,1-.49-.89c-.13-.46-.25-1-.35-1.47s-.21-1-.29-1.54-.16-.88-.22-1.12c-.17-.41-.42-.38-.74.09a9.32,9.32,0,0,0-1,2.23,33.05,33.05,0,0,0-.89,3.51,25.09,25.09,0,0,0-.47,3.8,8.89,8.89,0,0,0,.33,3.13,2,2,0,0,0,1.49,1.53,5,5,0,0,0,3.31-.87,24.17,24.17,0,0,0,3.88-2.87,50.07,50.07,0,0,0,3.58-3.55c1.1-1.22,1.93-2.17,2.49-2.88a1.94,1.94,0,0,1,.84-.66.94.94,0,0,1,1,.11c.5.44.49.93,0,1.49a20.87,20.87,0,0,1-1.57,1.82q-1.51,1.66-3.65,3.66a30.33,30.33,0,0,1-2.44,2.16,23.39,23.39,0,0,1-2.19,1.58A10.15,10.15,0,0,1,289.38,380.88Z" transform="translate(-126.08 -310.22)"/><path d="M304,338.16c0,3.61-.05,7.34,0,11.17q.09,6.24.19,10.7t.25,8q.13,3.51.31,6.4t.39,6a6,6,0,0,0,.2,1.41c.09.23.18.31.27.26a.83.83,0,0,0,.26-.37,3.36,3.36,0,0,0,.17-.51c.21-1.11.51-2.51.91-4.22s.85-3.56,1.35-5.56,1-4.05,1.62-6.15,1.17-4.07,1.75-5.91a4.68,4.68,0,0,1,1.75-2.78,2.42,2.42,0,0,1,2.3-.2,2.6,2.6,0,0,1,1.28,1,8.89,8.89,0,0,1,.83,1.75,14.79,14.79,0,0,1,.58,2.16c.15.77.32,1.53.52,2.28.07.37.24,1.07.5,2.09s.54,2.11.83,3.28.59,2.26.88,3.31.49,1.73.6,2a5.26,5.26,0,0,0,1.12,2.23,1.33,1.33,0,0,0,1.14.52c.46-.08.87-.56,1.21-1.44a22,22,0,0,0,.89-3c.25-1.1.49-2.19.73-3.24a8.46,8.46,0,0,1,.73-2.26c.2-.39.46-.5.75-.33s.37.54.22,1.12c-.07.33-.15.8-.25,1.4s-.23,1.26-.39,2-.34,1.47-.52,2.24a9.45,9.45,0,0,1-.71,2,6.76,6.76,0,0,1-1.85,3,2.45,2.45,0,0,1-2,.6,3.31,3.31,0,0,1-1.82-1.11,7.19,7.19,0,0,1-1.36-2.25c-.24-.64-.54-1.62-.92-2.95s-.76-2.74-1.15-4.25-.76-3-1.09-4.36-.58-2.46-.73-3.21-.28-1.15-.43-1.64a2.24,2.24,0,0,0-.53-1c-.2-.17-.43-.13-.67.12a4.78,4.78,0,0,0-.77,1.69c-.45,1.54-.93,3.33-1.43,5.35s-1,4.08-1.51,6.18-1.06,4.15-1.63,6.18-1.1,3.79-1.61,5.3a3,3,0,0,1-1,1.24,1.57,1.57,0,0,1-1.21.33,1.86,1.86,0,0,1-1.16-.8,4.33,4.33,0,0,1-.72-2.19c-.31-2.3-.6-5-.87-8.21s-.51-6.56-.72-10.17-.37-7.31-.5-11.11-.2-7.48-.21-11.06c0-1.63,0-2.79,0-4.33,0,0-.21-2.38,1.75-2.52C304.14,334.32,304,338.16,304,338.16Z" transform="translate(-126.08 -310.22)"/><path d="M327.89,376.39a16,16,0,0,1-.18-1.62c0-.62-.12-1.32-.22-2.12-.09-1.27-.16-2.48-.19-3.64s-.05-1.76-.06-1.81a1,1,0,0,1,.51-.88,1.89,1.89,0,0,1,1-.22,1.55,1.55,0,0,1,.91.33.57.57,0,0,1,.2.73c0,.52,0,1,0,1.56s0,1,0,1.56l.12,1.69c0,.57.08,1.2.1,1.91s.06,1.25.08,1.63c.12-.34.3-.88.53-1.63s.49-1.52.79-2.3a12.32,12.32,0,0,1,1-2.09,2.38,2.38,0,0,1,1.19-1.12,1.58,1.58,0,0,1,1.7.42,5,5,0,0,1,1,1.77,14.11,14.11,0,0,1,.61,2.15,11.72,11.72,0,0,0,.4,1.57.31.31,0,0,0,.22.17c.1,0,.19-.1.26-.34.24-.68.53-1.61.87-2.8a31.49,31.49,0,0,1,1.24-3.49,13.85,13.85,0,0,1,1.71-3,2.85,2.85,0,0,1,2.25-1.29,2.5,2.5,0,0,1,.79.08,2.62,2.62,0,0,1,1,.57,7.23,7.23,0,0,1,1.38,2.46c.36,1,.66,1.92.9,2.71.23.6.53,1.37.88,2.31a10.42,10.42,0,0,0,.92,2,1.88,1.88,0,0,0,.79.69,1.35,1.35,0,0,0,.82.05,2.22,2.22,0,0,0,.83-.41c.27-.21.51-.42.73-.62a17.57,17.57,0,0,0,2.25-3.36c.67-1.27,1.29-2.48,1.88-3.61a3.38,3.38,0,0,1,.63-1,.52.52,0,0,1,.56-.11c.34.12.45.37.34.76a4.81,4.81,0,0,1-.43,1c-.33.6-.71,1.39-1.14,2.39a24.81,24.81,0,0,1-1.5,2.95,13.91,13.91,0,0,1-1.91,2.55,3.9,3.9,0,0,1-2.32,1.26,4.64,4.64,0,0,1-2.11-.24,3.63,3.63,0,0,1-1.95-2,16.12,16.12,0,0,1-1-2.34c-.35-1-.7-1.9-1.05-2.8a23,23,0,0,0-1-2.3c-.32-.64-.61-.93-.84-.87s-.76.55-1.17,1.43a25.49,25.49,0,0,0-1.14,3c-.35,1.09-.67,2.12-1,3.08s-.49,1.6-.61,1.89a2.64,2.64,0,0,1-.87,1.16,2.09,2.09,0,0,1-1.22.45,2,2,0,0,1-1.23-.45,3.06,3.06,0,0,1-1-1.49,7.48,7.48,0,0,1-.33-1.08l-.3-1.33c-.11-.44-.2-.84-.3-1.18a4.27,4.27,0,0,0-.22-.66c-.12-.28-.3-.16-.55.36a17.29,17.29,0,0,0-.75,1.89c-.25.76-.51,1.52-.76,2.29s-.42,1.31-.49,1.6c-.26,1-.44,1.63-.53,2a.84.84,0,0,1-.7.65,1.58,1.58,0,0,1-1.22-.19,2.26,2.26,0,0,1-.7-.81,5.76,5.76,0,0,1-.39-1A4.67,4.67,0,0,1,327.89,376.39Z" transform="translate(-126.08 -310.22)"/><path d="M357.47,375.08a8.18,8.18,0,0,1-.73-2.3,9.08,9.08,0,0,1-.05-2.76c0-.19.07-.47.12-.83a7,7,0,0,1,.27-1.22c.13-.46.28-.93.46-1.42a6.88,6.88,0,0,1,.72-1.4,6.26,6.26,0,0,1-.54-1.17,4.53,4.53,0,0,1-.27-1.18,2,2,0,0,1,.37-1.34,1.36,1.36,0,0,1,1.2-.55,3.19,3.19,0,0,1,1.53.43,5,5,0,0,1,1.52,1.48,20.83,20.83,0,0,1,1.22,2.12,16,16,0,0,1,1.23,3.46,1.52,1.52,0,0,0,.89.47,4.41,4.41,0,0,0,1.91,0,6.93,6.93,0,0,0,3.88-1.94c.94-1,1.81-2,2.59-3,.17-.2.41-.22.71-.05s.42.47.24.91a5.38,5.38,0,0,1-.66,1.18c-.05.05-.34.44-.88,1.16a8.44,8.44,0,0,1-2.1,2,10.5,10.5,0,0,1-3.09,1.5,7.59,7.59,0,0,1-3.25.23,15.11,15.11,0,0,1-.19,2.78,4.18,4.18,0,0,1-.88,2.12,3.54,3.54,0,0,1-1.62,1.21,3.46,3.46,0,0,1-1.76.17,4.17,4.17,0,0,1-2.84-2Zm2.28-7.9a6.8,6.8,0,0,0-.43,1.87,15,15,0,0,0-.09,2.32,16.19,16.19,0,0,0,.23,2.18,5.84,5.84,0,0,0,.42,1.5,1.53,1.53,0,0,0,.62.66,1.15,1.15,0,0,0,.57.1,1.2,1.2,0,0,0,.95-.67,5.8,5.8,0,0,0,.6-1.49,8.88,8.88,0,0,0,.27-1.8,8.16,8.16,0,0,0-.08-1.62,7.49,7.49,0,0,1-1.92-1.57A15.88,15.88,0,0,1,359.75,367.18Z" transform="translate(-126.08 -310.22)"/><path d="M385.87,363.13c.39.11.59.31.61.59a2.78,2.78,0,0,1-.14,1s-.11.44-.34,1.19a27.17,27.17,0,0,1-1.08,2.81,14.09,14.09,0,0,1-2.26,3.71,7.5,7.5,0,0,1-2.59,2,5.9,5.9,0,0,1-1.47.32,4.21,4.21,0,0,1-2.3-.41c-1.91-.9-3-3.5-3.39-7.78a29.62,29.62,0,0,1-.17-3.93,13.84,13.84,0,0,1,.12-1.82,2.2,2.2,0,0,1,.22-.93.7.7,0,0,1,.75-.34c.77.09,1.1.49,1,1.2,0,.05,0,.66,0,1.82a29.54,29.54,0,0,0,.16,3.78,15.06,15.06,0,0,0,1.13,4.86,4.93,4.93,0,0,0,1.33,1.79,1.66,1.66,0,0,0,1.63,0,2.43,2.43,0,0,0,1-.71c.33-.35.68-.77,1.05-1.24a15.91,15.91,0,0,0,1.06-1.57c.34-.56.65-1.14.94-1.73s.47-1,.65-1.36.36-.82.52-1.21.32-.78.49-1.17C385,363.26,385.34,363,385.87,363.13Zm-10.74-8.33a1.21,1.21,0,0,1-.28,1,1.11,1.11,0,0,1-.76.3,1.25,1.25,0,0,1-.81-.37,1.49,1.49,0,0,1-.42-1c0-1,0-1.82,0-2.48s0-1,0-1.07a1.24,1.24,0,0,1,.43-.92,1.33,1.33,0,0,1,1-.32,1.63,1.63,0,0,1,.92.47,1.22,1.22,0,0,1,.32.94,8.85,8.85,0,0,0-.21,1,8.13,8.13,0,0,0-.17,1.11A7.06,7.06,0,0,0,375.13,354.8Z" transform="translate(-126.08 -310.22)"/><path d="M389.51,380.48a1.47,1.47,0,0,1-.94-1.22,3.59,3.59,0,0,1,.86-2.43c.63-.83,1.18-1.52,1.67-2.07-.73-.95-1.59-2-2.56-3.05s-1.81-2.09-2.49-3a7.43,7.43,0,0,1-1.34-2.46,8.51,8.51,0,0,1-.25-2,5.32,5.32,0,0,1,.52-2.73,7.71,7.71,0,0,1,1.71-2.36,8.76,8.76,0,0,1,2.44-1.63,5.79,5.79,0,0,1,2.77-.48,1.73,1.73,0,0,1,1.24.48,1.38,1.38,0,0,1,.31.87,2.19,2.19,0,0,1-.22.94,1,1,0,0,1-.42.56.34.34,0,0,1-.51-.14,6,6,0,0,0-.4-.65s-.46.15-1.24.45a5.69,5.69,0,0,0-2.29,1.72,12.66,12.66,0,0,0-.85,1.09,4.61,4.61,0,0,0-.68,1.43,4.19,4.19,0,0,0,0,1.85,5.7,5.7,0,0,0,1.13,2.33,16.92,16.92,0,0,0,2.32,2.75,20,20,0,0,1,2.15,2.33c.48-.6,1.08-1.45,1.81-2.54a39.51,39.51,0,0,1,2.4-3.22q1.5-1.95,2.74-3.35a13.76,13.76,0,0,1,1.26-1.34.92.92,0,0,1,1.41-.17.59.59,0,0,1,.26.66,1.9,1.9,0,0,1-.38.7c-1.4,1.66-2.55,3.06-3.47,4.19s-1.82,2.3-2.73,3.53a27.46,27.46,0,0,0-2.05,3.09,13.28,13.28,0,0,1,.55,1.8,2.91,2.91,0,0,1-.09,1.71,3.94,3.94,0,0,1-1.92,2A3.29,3.29,0,0,1,389.51,380.48Zm2.72-3.75c-.22.3-.42.58-.62.83a3,3,0,0,0-.41.67l.3-.2a1.31,1.31,0,0,0,.3-.27,1.27,1.27,0,0,0,.43-1Z" transform="translate(-126.08 -310.22)"/><path d="M401.28,371.2c-.08-.47-.14-1-.19-1.62s-.11-1.32-.22-2.12c-.09-1.27-.15-2.48-.18-3.64s-.06-1.76-.06-1.81a1,1,0,0,1,.5-.88,1.91,1.91,0,0,1,1-.22,1.65,1.65,0,0,1,.91.33.57.57,0,0,1,.19.73c0,.52,0,1,0,1.56s0,1,0,1.56l.12,1.69c0,.57.07,1.21.1,1.91s.05,1.25.08,1.63c.12-.34.29-.88.52-1.63s.5-1.52.8-2.3a13.11,13.11,0,0,1,1-2.09,2.29,2.29,0,0,1,1.2-1.11,1.56,1.56,0,0,1,1.7.41,5.26,5.26,0,0,1,1.05,1.77,15.11,15.11,0,0,1,.61,2.16,12.62,12.62,0,0,0,.4,1.57.3.3,0,0,0,.22.16c.1,0,.18-.1.26-.34.24-.68.52-1.61.87-2.8a30.23,30.23,0,0,1,1.24-3.49,14.1,14.1,0,0,1,1.71-3,2.85,2.85,0,0,1,2.25-1.29,2.23,2.23,0,0,1,.78.09,2.46,2.46,0,0,1,1,.57,7.25,7.25,0,0,1,1.38,2.45c.35,1,.65,1.92.9,2.71q.35.9.87,2.31a10.32,10.32,0,0,0,.93,2,1.83,1.83,0,0,0,.79.69,1.35,1.35,0,0,0,.82.05,2,2,0,0,0,.82-.41c.27-.21.52-.42.74-.62a17.8,17.8,0,0,0,2.25-3.35l1.87-3.62a3.33,3.33,0,0,1,.64-1,.5.5,0,0,1,.56-.12.54.54,0,0,1,.34.76,5.14,5.14,0,0,1-.43,1,21.84,21.84,0,0,0-1.14,2.38,25.57,25.57,0,0,1-1.5,2.95,14.38,14.38,0,0,1-1.91,2.55,3.93,3.93,0,0,1-2.33,1.26,4.39,4.39,0,0,1-2.11-.24,3.66,3.66,0,0,1-2-2,17.42,17.42,0,0,1-1-2.34l-1.05-2.8a24.11,24.11,0,0,0-1-2.3q-.49-1-.84-.87c-.37.08-.77.55-1.18,1.43a26.21,26.21,0,0,0-1.14,3c-.35,1.09-.66,2.12-.95,3.08s-.49,1.6-.61,1.89a2.75,2.75,0,0,1-.88,1.17,2.09,2.09,0,0,1-1.21.44,2.06,2.06,0,0,1-1.24-.45,3,3,0,0,1-.95-1.49,6.4,6.4,0,0,1-.33-1.08c-.1-.44-.2-.88-.31-1.33s-.2-.83-.29-1.18a3.16,3.16,0,0,0-.23-.66q-.16-.42-.54.36a15.06,15.06,0,0,0-.75,1.9c-.26.75-.51,1.51-.76,2.29s-.42,1.3-.49,1.59c-.27,1-.45,1.63-.54,2a.82.82,0,0,1-.7.65,1.59,1.59,0,0,1-1.22-.19,2.23,2.23,0,0,1-.69-.81,4.51,4.51,0,0,1-.39-1A4,4,0,0,1,401.28,371.2Z" transform="translate(-126.08 -310.22)"/><path d="M451,358.81a.6.6,0,0,1,.49.53,2.13,2.13,0,0,1-.1,1c-.12.36-.27.75-.45,1.16s-.36.77-.53,1.07-.52.89-.8,1.33-.58.94-.92,1.49a8.87,8.87,0,0,1-2.62,2.63,4.91,4.91,0,0,1-2.81.88,5.72,5.72,0,0,1-2.29-.8,7.34,7.34,0,0,1-2.51-2.77c-.29.5-.63,1.09-1,1.78a11.87,11.87,0,0,1-1.48,2.09,8,8,0,0,1-2.19,1.72,2.69,2.69,0,0,1-2.66,0,3.25,3.25,0,0,1-1.55-1.91,6.57,6.57,0,0,1-.41-2.85,13.31,13.31,0,0,1,1.32-4.88,8.75,8.75,0,0,1,3.11-3.67,4.34,4.34,0,0,1,2.65-.72,4.07,4.07,0,0,1,2.33.8,2.93,2.93,0,0,1,.94,1.32.67.67,0,0,1-.43.91.73.73,0,0,1-.53.11.59.59,0,0,1-.29-.19,2,2,0,0,1-.24-.34,1.07,1.07,0,0,0-.34-.33,2,2,0,0,0-1.06-.35,3,3,0,0,0-1.43.38,4.76,4.76,0,0,0-2.07,2.32,21.92,21.92,0,0,0-1.22,3.24,7.82,7.82,0,0,0-.24,1.12,12.78,12.78,0,0,0-.18,1.5,9.66,9.66,0,0,0,0,1.42,1.14,1.14,0,0,0,.42.93c.4.26.87.09,1.42-.49a14.89,14.89,0,0,0,1.66-2.18c.55-.86,1.06-1.74,1.52-2.62s.77-1.48.94-1.77c.27-.83.7-1.14,1.28-.95a1.11,1.11,0,0,1,.71,1.09c.17.27.39.67.69,1.19a12.44,12.44,0,0,0,1,1.56,7.65,7.65,0,0,0,1.26,1.33,2.25,2.25,0,0,0,1.25.59,2.65,2.65,0,0,0,1.82-.87,12.3,12.3,0,0,0,1.69-2.11,21,21,0,0,0,1.42-2.52c.42-.85.75-1.55,1-2.09a3.31,3.31,0,0,1,.71-1A.81.81,0,0,1,451,358.81Z" transform="translate(-126.08 -310.22)"/><path d="M450.43,366.66a15.34,15.34,0,0,0-.24-2.51,45.53,45.53,0,0,1-.41-4.69c-.07-1.08-.11-2-.09-2.9s0-1.57.09-2.14.1-1.26.16-1.78a1.44,1.44,0,0,1,.39-.95,1.15,1.15,0,0,1,.94-.35,1.23,1.23,0,0,1,1.36,1.25c0,1,.05,2.31.06,3.83s0,3,0,4.43,0,2.7,0,3.76,0,1.62,0,1.67c.06.23.21.1.43-.39s.51-1.17.85-2,.72-1.85,1.15-2.92.85-2.08,1.31-3a3.39,3.39,0,0,1,.81-1.12,2.84,2.84,0,0,1,1-.64,1.49,1.49,0,0,1,1.06,0,2.25,2.25,0,0,1,1,1,13,13,0,0,1,.93,1.57q.45.88.9,1.71c.3.54.57,1.06.82,1.54a7.8,7.8,0,0,0,.61,1,3.4,3.4,0,0,0,1.18,1.23c.37.19.78.08,1.22-.33a10.42,10.42,0,0,0,1.55-1.71c.49-.67,1-1.33,1.38-2s.92-1.51,1.33-2.29a1.21,1.21,0,0,1,.56-.64.58.58,0,0,1,.53,0,.61.61,0,0,1,.25.52,1.74,1.74,0,0,1-.22.9c-.33.59-.76,1.32-1.26,2.18a26.52,26.52,0,0,1-1.67,2.5,17.17,17.17,0,0,1-1.88,2.12,3.21,3.21,0,0,1-1.95,1,2.52,2.52,0,0,1-2-.89,11.3,11.3,0,0,1-1.76-2.32c-.54-.91-1-1.82-1.48-2.74a19,19,0,0,0-1.06-2c-.16-.27-.46.05-.89.95s-.9,2-1.4,3.22-1,2.45-1.49,3.62a7.79,7.79,0,0,1-1.19,2.22,1.64,1.64,0,0,1-2,.39A2.37,2.37,0,0,1,450.43,366.66Z" transform="translate(-126.08 -310.22)"/></svg>